<svg xmlns="http://www.w3.org/2000/svg" viewBox="-15 -24 130 155" role="img"><defs><linearGradient id="tb26rim" x1="0" y1="0" x2="0.25" y2="1"><stop offset="0" stop-color="#d8975c"/><stop offset="0.5" stop-color="#542d15"/><stop offset="1" stop-color="#542d15"/></linearGradient><linearGradient id="tb26field" x1="0.15" y1="0" x2="0.7" y2="1"><stop offset="0" stop-color="#d8975c"/><stop offset="0.42" stop-color="#aa6433"/><stop offset="1" stop-color="#7c4420"/></linearGradient><linearGradient id="tb26wing" x1="0" y1="0" x2="0" y2="1"><stop offset="0" stop-color="#d8975c"/><stop offset="1" stop-color="#7c4420"/></linearGradient><radialGradient id="tb26ball" cx="0.36" cy="0.3" r="0.8"><stop offset="0" stop-color="#d8975c"/><stop offset="0.6" stop-color="#aa6433"/><stop offset="1" stop-color="#7c4420"/></radialGradient><radialGradient id="tb26sheen" cx="0.4" cy="0.16" r="0.62"><stop offset="0" stop-color="#fff" stop-opacity="0.55"/><stop offset="0.55" stop-color="#fff" stop-opacity="0.08"/><stop offset="1" stop-color="#fff" stop-opacity="0"/></radialGradient><radialGradient id="tb26glow" cx="0.5" cy="0.5" r="0.5"><stop offset="0" stop-color="#aa6433" stop-opacity="0.55"/><stop offset="0.55" stop-color="#aa6433" stop-opacity="0.16"/><stop offset="1" stop-color="#aa6433" stop-opacity="0"/></radialGradient><clipPath id="tb26clip"><path d="M50 11 L87 23 V54 C87 79 71 96 50 104 C29 96 13 79 13 54 V23 Z"/></clipPath><filter id="tb26ds" x="-60%" y="-60%" width="220%" height="220%"><feDropShadow dx="0" dy="2.2" stdDeviation="2.4" flood-color="#1a1a16" flood-opacity="0.32"/></filter><filter id="tb26ods" x="-80%" y="-120%" width="260%" height="320%"><feDropShadow dx="0" dy="1.4" stdDeviation="1.2" flood-color="#1a1a16" flood-opacity="0.3"/></filter></defs><g filter="url(#tb26ds)"><path d="M50 3 L94 17 V55 C94 84 76 104 50 113 C24 104 6 84 6 55 V17 Z" fill="url(#tb26rim)" stroke="#542d15" stroke-width="1.4"/><path d="M50 11 L87 23 V54 C87 79 71 96 50 104 C29 96 13 79 13 54 V23 Z" fill="url(#tb26field)"/><g clip-path="url(#tb26clip)"><ellipse cx="46" cy="26" rx="42" ry="26" fill="url(#tb26sheen)"/></g><g><g transform="translate(50 51) rotate(-27) scale(0.9)" fill="none" stroke="#542d15" stroke-width="2.3" stroke-linecap="round" stroke-linejoin="round" opacity="0.6"><ellipse cx="0" cy="-15" rx="8.4" ry="11" fill="none" stroke="rgb(84, 45, 21)" stroke-linecap="round" stroke-linejoin="round" stroke-width="2.3"/><ellipse cx="0" cy="-15" rx="5.3" ry="7.4" stroke-width="1.1" opacity="0.85" fill="none" stroke="rgb(84, 45, 21)" stroke-linecap="round" stroke-linejoin="round"/><path d="M -3.6 -4.2 L 0 1.5 L 3.6 -4.2" fill="none" stroke="rgb(84, 45, 21)" stroke-linecap="round" stroke-linejoin="round" stroke-width="2.3"/><path d="M 0 1.5 L 0 20" fill="none" stroke="rgb(84, 45, 21)" stroke-linecap="round" stroke-linejoin="round" stroke-width="2.3"/></g><g transform="translate(50 51) rotate(27) scale(0.9)" fill="none" stroke="#542d15" stroke-width="2.3" stroke-linecap="round" stroke-linejoin="round" opacity="0.6"><ellipse cx="0" cy="-15" rx="8.4" ry="11" fill="none" stroke="rgb(84, 45, 21)" stroke-linecap="round" stroke-linejoin="round" stroke-width="2.3"/><ellipse cx="0" cy="-15" rx="5.3" ry="7.4" stroke-width="1.1" opacity="0.85" fill="none" stroke="rgb(84, 45, 21)" stroke-linecap="round" stroke-linejoin="round"/><path d="M -3.6 -4.2 L 0 1.5 L 3.6 -4.2" fill="none" stroke="rgb(84, 45, 21)" stroke-linecap="round" stroke-linejoin="round" stroke-width="2.3"/><path d="M 0 1.5 L 0 20" fill="none" stroke="rgb(84, 45, 21)" stroke-linecap="round" stroke-linejoin="round" stroke-width="2.3"/></g><circle cx="50" cy="49" r="12.4" fill="url(#tb26ball)" stroke="#542d15" stroke-width="1.2" stroke-opacity="0.5"/><path d="M41.5 43 C45.6 46, 45.6 52, 41.5 55" fill="none" stroke="#542d15" stroke-width="1.5" stroke-opacity="0.55" stroke-linecap="round"/><path d="M58.5 43 C54.4 46, 54.4 52, 58.5 55" fill="none" stroke="#542d15" stroke-width="1.5" stroke-opacity="0.55" stroke-linecap="round"/><ellipse cx="46" cy="44.5" rx="3.4" ry="2.1" fill="#fff" opacity="0.5"/></g><g><path d="M16 80 L84 80 L80 93 L20 93 Z" fill="#6a3a1c" stroke="#542d15" stroke-width="0.8"/><line x1="20" y1="81.4" x2="80" y2="81.4" stroke="#fff" stroke-opacity="0.22" stroke-width="0.8"/><text x="50" y="89.6" text-anchor="middle" fill="#fff1e2" font-family="var(--font-mono)" font-size="9.4" font-weight="700" letter-spacing="0.12em" lengthAdjust="spacingAndGlyphs">BRONZE</text></g><g><g><circle cx="15" cy="28" r="2.3" fill="#7c4420" stroke="#542d15" stroke-width="0.5"/><circle cx="14.4" cy="27.4" r="0.8" fill="#fff" opacity="0.6"/></g><g><circle cx="85" cy="28" r="2.3" fill="#7c4420" stroke="#542d15" stroke-width="0.5"/><circle cx="84.4" cy="27.4" r="0.8" fill="#fff" opacity="0.6"/></g></g><path d="M50 11 L87 23 V54 C87 79 71 96 50 104 C29 96 13 79 13 54 V23 Z" fill="none" stroke="#fff" stroke-opacity="0.28" stroke-width="0.9"/><path d="M50 3 L94 17 V55 C94 84 76 104 50 113 C24 104 6 84 6 55 V17 Z" fill="none" stroke="#542d15" stroke-opacity="0.6" stroke-width="0.8"/></g></svg>