<svg xmlns="http://www.w3.org/2000/svg" viewBox="-15 -24 130 155" role="img"><defs><linearGradient id="tb32rim" x1="0" y1="0" x2="0.25" y2="1"><stop offset="0" stop-color="#ffe39a"/><stop offset="0.5" stop-color="#86281d"/><stop offset="1" stop-color="#86281d"/></linearGradient><linearGradient id="tb32field" x1="0.15" y1="0" x2="0.7" y2="1"><stop offset="0" stop-color="#ffe39a"/><stop offset="0.42" stop-color="#f08a3c"/><stop offset="1" stop-color="#c23a28"/></linearGradient><linearGradient id="tb32wing" x1="0" y1="0" x2="0" y2="1"><stop offset="0" stop-color="#ffe39a"/><stop offset="1" stop-color="#c23a28"/></linearGradient><radialGradient id="tb32ball" cx="0.36" cy="0.3" r="0.8"><stop offset="0" stop-color="#ffe39a"/><stop offset="0.6" stop-color="#f08a3c"/><stop offset="1" stop-color="#c23a28"/></radialGradient><radialGradient id="tb32sheen" cx="0.4" cy="0.16" r="0.62"><stop offset="0" stop-color="#fff" stop-opacity="0.55"/><stop offset="0.55" stop-color="#fff" stop-opacity="0.08"/><stop offset="1" stop-color="#fff" stop-opacity="0"/></radialGradient><radialGradient id="tb32glow" cx="0.5" cy="0.5" r="0.5"><stop offset="0" stop-color="#f08a3c" stop-opacity="0.55"/><stop offset="0.55" stop-color="#f08a3c" stop-opacity="0.16"/><stop offset="1" stop-color="#f08a3c" stop-opacity="0"/></radialGradient><clipPath id="tb32clip"><path d="M50 11 L87 23 V54 C87 79 71 96 50 104 C29 96 13 79 13 54 V23 Z"/></clipPath><filter id="tb32ds" x="-60%" y="-60%" width="220%" height="220%"><feDropShadow dx="0" dy="2.2" stdDeviation="2.4" flood-color="#1a1a16" flood-opacity="0.32"/></filter><filter id="tb32ods" x="-80%" y="-120%" width="260%" height="320%"><feDropShadow dx="0" dy="1.4" stdDeviation="1.2" flood-color="#1a1a16" flood-opacity="0.3"/></filter></defs><circle cx="50" cy="54" r="78" fill="url(#tb32glow)"/><g filter="url(#tb32ds)"><g transform="translate(14 30)" opacity="0.96"><path d="M0 4 Q -21 -19.5 -30 -12.5 Q -15 -5.5 0 11 Z" fill="url(#tb32wing)" stroke="#86281d" stroke-width="0.6" stroke-opacity="0.7"/><path d="M0 11 Q -16.799999999999997 -8.200000000000001 -24 -2.200000000000001 Q -12 3.799999999999999 0 17 Z" fill="url(#tb32wing)" stroke="#86281d" stroke-width="0.6" stroke-opacity="0.7"/><path d="M0 18 Q -11.899999999999999 3.6499999999999986 -17 8.649999999999999 Q -8.5 13.649999999999999 0 23 Z" fill="url(#tb32wing)" stroke="#86281d" stroke-width="0.6" stroke-opacity="0.7"/></g><g transform="translate(86 30)" opacity="0.96"><path d="M0 4 Q 21 -19.5 30 -12.5 Q 15 -5.5 0 11 Z" fill="url(#tb32wing)" stroke="#86281d" stroke-width="0.6" stroke-opacity="0.7"/><path d="M0 11 Q 16.799999999999997 -8.200000000000001 24 -2.200000000000001 Q 12 3.799999999999999 0 17 Z" fill="url(#tb32wing)" stroke="#86281d" stroke-width="0.6" stroke-opacity="0.7"/><path d="M0 18 Q 11.899999999999999 3.6499999999999986 17 8.649999999999999 Q 8.5 13.649999999999999 0 23 Z" fill="url(#tb32wing)" stroke="#86281d" stroke-width="0.6" stroke-opacity="0.7"/></g></g><g filter="url(#tb32ds)"><path d="M50 3 L94 17 V55 C94 84 76 104 50 113 C24 104 6 84 6 55 V17 Z" fill="url(#tb32rim)" stroke="#86281d" stroke-width="1.4"/><path d="M50 11 L87 23 V54 C87 79 71 96 50 104 C29 96 13 79 13 54 V23 Z" fill="url(#tb32field)"/><g clip-path="url(#tb32clip)"><ellipse cx="46" cy="26" rx="42" ry="26" fill="url(#tb32sheen)"/></g><g><g transform="translate(50 51) rotate(-27) scale(0.9)" fill="none" stroke="#86281d" stroke-width="2.3" stroke-linecap="round" stroke-linejoin="round" opacity="0.6"><ellipse cx="0" cy="-15" rx="8.4" ry="11" fill="none" stroke="rgb(134, 40, 29)" stroke-linecap="round" stroke-linejoin="round" stroke-width="2.3"/><ellipse cx="0" cy="-15" rx="5.3" ry="7.4" stroke-width="1.1" opacity="0.85" fill="none" stroke="rgb(134, 40, 29)" stroke-linecap="round" stroke-linejoin="round"/><path d="M -3.6 -4.2 L 0 1.5 L 3.6 -4.2" fill="none" stroke="rgb(134, 40, 29)" stroke-linecap="round" stroke-linejoin="round" stroke-width="2.3"/><path d="M 0 1.5 L 0 20" fill="none" stroke="rgb(134, 40, 29)" stroke-linecap="round" stroke-linejoin="round" stroke-width="2.3"/></g><g transform="translate(50 51) rotate(27) scale(0.9)" fill="none" stroke="#86281d" stroke-width="2.3" stroke-linecap="round" stroke-linejoin="round" opacity="0.6"><ellipse cx="0" cy="-15" rx="8.4" ry="11" fill="none" stroke="rgb(134, 40, 29)" stroke-linecap="round" stroke-linejoin="round" stroke-width="2.3"/><ellipse cx="0" cy="-15" rx="5.3" ry="7.4" stroke-width="1.1" opacity="0.85" fill="none" stroke="rgb(134, 40, 29)" stroke-linecap="round" stroke-linejoin="round"/><path d="M -3.6 -4.2 L 0 1.5 L 3.6 -4.2" fill="none" stroke="rgb(134, 40, 29)" stroke-linecap="round" stroke-linejoin="round" stroke-width="2.3"/><path d="M 0 1.5 L 0 20" fill="none" stroke="rgb(134, 40, 29)" stroke-linecap="round" stroke-linejoin="round" stroke-width="2.3"/></g><circle cx="50" cy="49" r="12.4" fill="url(#tb32ball)" stroke="#86281d" stroke-width="1.2" stroke-opacity="0.5"/><path d="M41.5 43 C45.6 46, 45.6 52, 41.5 55" fill="none" stroke="#86281d" stroke-width="1.5" stroke-opacity="0.55" stroke-linecap="round"/><path d="M58.5 43 C54.4 46, 54.4 52, 58.5 55" fill="none" stroke="#86281d" stroke-width="1.5" stroke-opacity="0.55" stroke-linecap="round"/><ellipse cx="46" cy="44.5" rx="3.4" ry="2.1" fill="#fff" opacity="0.5"/></g><g><path d="M16 80 L84 80 L80 93 L20 93 Z" fill="#d65a2e" stroke="#86281d" stroke-width="0.8"/><line x1="20" y1="81.4" x2="80" y2="81.4" stroke="#fff" stroke-opacity="0.22" stroke-width="0.8"/><text x="50" y="89.6" text-anchor="middle" fill="#fff6e8" font-family="var(--font-mono)" font-size="9.4" font-weight="700" letter-spacing="0.02em" textLength="56" lengthAdjust="spacingAndGlyphs">CHALLENGER</text></g><g><g><circle cx="15" cy="28" r="2.3" fill="#c23a28" stroke="#86281d" stroke-width="0.5"/><circle cx="14.4" cy="27.4" r="0.8" fill="#fff" opacity="0.6"/></g><g><circle cx="85" cy="28" r="2.3" fill="#c23a28" stroke="#86281d" stroke-width="0.5"/><circle cx="84.4" cy="27.4" r="0.8" fill="#fff" opacity="0.6"/></g></g><g><g><circle cx="11" cy="52" r="2.3" fill="#c23a28" stroke="#86281d" stroke-width="0.5"/><circle cx="10.4" cy="51.4" r="0.8" fill="#fff" opacity="0.6"/></g><g><circle cx="89" cy="52" r="2.3" fill="#c23a28" stroke="#86281d" stroke-width="0.5"/><circle cx="88.4" cy="51.4" r="0.8" fill="#fff" opacity="0.6"/></g></g><path d="M50 11 L87 23 V54 C87 79 71 96 50 104 C29 96 13 79 13 54 V23 Z" fill="none" stroke="#fff" stroke-opacity="0.28" stroke-width="0.9"/><path d="M50 3 L94 17 V55 C94 84 76 104 50 113 C24 104 6 84 6 55 V17 Z" fill="none" stroke="#86281d" stroke-opacity="0.6" stroke-width="0.8"/></g><g><g stroke="#86281d" stroke-opacity="0.85" fill="#f08a3c" fill-opacity="0.9" stroke-width="0.5"><path d="M9 92 C 3 80, 4 62, 12 50" fill="none" stroke-width="1.3" fill-opacity="0.9" stroke="rgb(134, 40, 29)" stroke-opacity="0.85"/><ellipse cx="14" cy="88" rx="4.6" ry="2.1" transform="rotate(60 14 88)" fill="rgb(240, 138, 60)" fill-opacity="0.9" stroke="rgb(134, 40, 29)" stroke-opacity="0.85" stroke-width="0.5"/><ellipse cx="13.56" cy="80.8" rx="4.6" ry="2.1" transform="rotate(54.8 13.56 80.8)" fill="rgb(240, 138, 60)" fill-opacity="0.9" stroke="rgb(134, 40, 29)" stroke-opacity="0.85" stroke-width="0.5"/><ellipse cx="13.120000000000001" cy="73.6" rx="4.6" ry="2.1" transform="rotate(49.6 13.120000000000001 73.6)" fill="rgb(240, 138, 60)" fill-opacity="0.9" stroke="rgb(134, 40, 29)" stroke-opacity="0.85" stroke-width="0.5"/><ellipse cx="12.68" cy="66.4" rx="4.6" ry="2.1" transform="rotate(44.4 12.68 66.4)" fill="rgb(240, 138, 60)" fill-opacity="0.9" stroke="rgb(134, 40, 29)" stroke-opacity="0.85" stroke-width="0.5"/><ellipse cx="12.24" cy="59.2" rx="4.6" ry="2.1" transform="rotate(39.2 12.24 59.2)" fill="rgb(240, 138, 60)" fill-opacity="0.9" stroke="rgb(134, 40, 29)" stroke-opacity="0.85" stroke-width="0.5"/><ellipse cx="11.8" cy="52" rx="4.6" ry="2.1" transform="rotate(34 11.8 52)" fill="rgb(240, 138, 60)" fill-opacity="0.9" stroke="rgb(134, 40, 29)" stroke-opacity="0.85" stroke-width="0.5"/></g><g stroke="#86281d" stroke-opacity="0.85" fill="#f08a3c" fill-opacity="0.9" stroke-width="0.5"><path d="M91 92 C 97 80, 96 62, 88 50" fill="none" stroke-width="1.3" fill-opacity="0.9" stroke="rgb(134, 40, 29)" stroke-opacity="0.85"/><ellipse cx="86" cy="88" rx="4.6" ry="2.1" transform="rotate(-60 86 88)" fill="rgb(240, 138, 60)" fill-opacity="0.9" stroke="rgb(134, 40, 29)" stroke-opacity="0.85" stroke-width="0.5"/><ellipse cx="86.44" cy="80.8" rx="4.6" ry="2.1" transform="rotate(-54.8 86.44 80.8)" fill="rgb(240, 138, 60)" fill-opacity="0.9" stroke="rgb(134, 40, 29)" stroke-opacity="0.85" stroke-width="0.5"/><ellipse cx="86.88" cy="73.6" rx="4.6" ry="2.1" transform="rotate(-49.6 86.88 73.6)" fill="rgb(240, 138, 60)" fill-opacity="0.9" stroke="rgb(134, 40, 29)" stroke-opacity="0.85" stroke-width="0.5"/><ellipse cx="87.32" cy="66.4" rx="4.6" ry="2.1" transform="rotate(-44.4 87.32 66.4)" fill="rgb(240, 138, 60)" fill-opacity="0.9" stroke="rgb(134, 40, 29)" stroke-opacity="0.85" stroke-width="0.5"/><ellipse cx="87.76" cy="59.2" rx="4.6" ry="2.1" transform="rotate(-39.2 87.76 59.2)" fill="rgb(240, 138, 60)" fill-opacity="0.9" stroke="rgb(134, 40, 29)" stroke-opacity="0.85" stroke-width="0.5"/><ellipse cx="88.2" cy="52" rx="4.6" ry="2.1" transform="rotate(-34 88.2 52)" fill="rgb(240, 138, 60)" fill-opacity="0.9" stroke="rgb(134, 40, 29)" stroke-opacity="0.85" stroke-width="0.5"/></g></g><g filter="url(#tb32ods)"><path d="M33 7 L33 -4 L40 2 L46 -9 L50 -16 L54 -9 L60 2 L67 -4 L67 7 Z" fill="url(#tb32field)" stroke="#86281d" stroke-width="0.9" stroke-linejoin="round"/><rect x="33" y="5" width="34" height="4" rx="1.2" fill="url(#tb32field)" stroke="#86281d" stroke-width="0.7"/><path d="M34 5.6 H66" stroke="#fff" stroke-opacity="0.32" stroke-width="0.8"/><path d="M50 -16 V-22 M47 -19 H53" stroke="url(#tb32field)" stroke-width="2" stroke-linecap="round"/><g><path d="M47.3 -9 L50 -12.105 L52.7 -9 L50 -5.3549999999999995 Z" fill="#d2f24e" stroke="#86281d" stroke-width="0.5"/><path d="M47.3 -9 L50 -5.3549999999999995 L52.7 -9 Z" fill="#000" opacity="0.12"/><path d="M48.65 -9.27 L50 -12.105 L51.35 -9.27 Z" fill="#fff" opacity="0.55"/></g><circle cx="46" cy="-7.5" r="1.5" fill="#d2f24e"/><circle cx="54" cy="-7.5" r="1.5" fill="#d2f24e"/><circle cx="40" cy="0.5" r="1.4" fill="#d2f24e"/><circle cx="60" cy="0.5" r="1.4" fill="#d2f24e"/><circle cx="36" cy="6.8" r="1.2" fill="#d2f24e"/><circle cx="64" cy="6.8" r="1.2" fill="#d2f24e"/></g><g><path d="M20 16.6 C20.68 19.32, 20.68 19.32, 23.4 20 C20.68 20.68, 20.68 20.68, 20 23.4 C19.32 20.68, 19.32 20.68, 16.6 20 C19.32 19.32, 19.32 19.32, 20 16.6 Z" fill="#d2f24e"/><path d="M80 16.6 C80.68 19.32, 80.68 19.32, 83.4 20 C80.68 20.68, 80.68 20.68, 80 23.4 C79.32 20.68, 79.32 20.68, 76.6 20 C79.32 19.32, 79.32 19.32, 80 16.6 Z" fill="#d2f24e"/><path d="M14 59.6 C14.48 61.52, 14.48 61.52, 16.4 62 C14.48 62.48, 14.48 62.48, 14 64.4 C13.52 62.48, 13.52 62.48, 11.6 62 C13.52 61.52, 13.52 61.52, 14 59.6 Z" fill="#d2f24e"/><path d="M86 59.6 C86.48 61.52, 86.48 61.52, 88.4 62 C86.48 62.48, 86.48 62.48, 86 64.4 C85.52 62.48, 85.52 62.48, 83.6 62 C85.52 61.52, 85.52 61.52, 86 59.6 Z" fill="#d2f24e"/></g></svg>