<svg xmlns="http://www.w3.org/2000/svg" viewBox="-15 -24 130 155" role="img"><defs><linearGradient id="tb30rim" x1="0" y1="0" x2="0.25" y2="1"><stop offset="0" stop-color="#bdeefb"/><stop offset="0.5" stop-color="#1f6890"/><stop offset="1" stop-color="#1f6890"/></linearGradient><linearGradient id="tb30field" x1="0.15" y1="0" x2="0.7" y2="1"><stop offset="0" stop-color="#bdeefb"/><stop offset="0.42" stop-color="#67c0e0"/><stop offset="1" stop-color="#2f88b6"/></linearGradient><linearGradient id="tb30wing" x1="0" y1="0" x2="0" y2="1"><stop offset="0" stop-color="#bdeefb"/><stop offset="1" stop-color="#2f88b6"/></linearGradient><radialGradient id="tb30ball" cx="0.36" cy="0.3" r="0.8"><stop offset="0" stop-color="#bdeefb"/><stop offset="0.6" stop-color="#67c0e0"/><stop offset="1" stop-color="#2f88b6"/></radialGradient><radialGradient id="tb30sheen" cx="0.4" cy="0.16" r="0.62"><stop offset="0" stop-color="#fff" stop-opacity="0.55"/><stop offset="0.55" stop-color="#fff" stop-opacity="0.08"/><stop offset="1" stop-color="#fff" stop-opacity="0"/></radialGradient><radialGradient id="tb30glow" cx="0.5" cy="0.5" r="0.5"><stop offset="0" stop-color="#67c0e0" stop-opacity="0.55"/><stop offset="0.55" stop-color="#67c0e0" stop-opacity="0.16"/><stop offset="1" stop-color="#67c0e0" stop-opacity="0"/></radialGradient><clipPath id="tb30clip"><path d="M50 11 L87 23 V54 C87 79 71 96 50 104 C29 96 13 79 13 54 V23 Z"/></clipPath><filter id="tb30ds" x="-60%" y="-60%" width="220%" height="220%"><feDropShadow dx="0" dy="2.2" stdDeviation="2.4" flood-color="#1a1a16" flood-opacity="0.32"/></filter><filter id="tb30ods" x="-80%" y="-120%" width="260%" height="320%"><feDropShadow dx="0" dy="1.4" stdDeviation="1.2" flood-color="#1a1a16" flood-opacity="0.3"/></filter></defs><circle cx="50" cy="54" r="64" fill="url(#tb30glow)"/><g filter="url(#tb30ds)"><path d="M50 3 L94 17 V55 C94 84 76 104 50 113 C24 104 6 84 6 55 V17 Z" fill="url(#tb30rim)" stroke="#1f6890" stroke-width="1.4"/><path d="M50 11 L87 23 V54 C87 79 71 96 50 104 C29 96 13 79 13 54 V23 Z" fill="url(#tb30field)"/><g clip-path="url(#tb30clip)"><ellipse cx="46" cy="26" rx="42" ry="26" fill="url(#tb30sheen)"/></g><g><g transform="translate(50 51) rotate(-27) scale(0.9)" fill="none" stroke="#1f6890" stroke-width="2.3" stroke-linecap="round" stroke-linejoin="round" opacity="0.6"><ellipse cx="0" cy="-15" rx="8.4" ry="11" fill="none" stroke="rgb(31, 104, 144)" stroke-linecap="round" stroke-linejoin="round" stroke-width="2.3"/><ellipse cx="0" cy="-15" rx="5.3" ry="7.4" stroke-width="1.1" opacity="0.85" fill="none" stroke="rgb(31, 104, 144)" stroke-linecap="round" stroke-linejoin="round"/><path d="M -3.6 -4.2 L 0 1.5 L 3.6 -4.2" fill="none" stroke="rgb(31, 104, 144)" stroke-linecap="round" stroke-linejoin="round" stroke-width="2.3"/><path d="M 0 1.5 L 0 20" fill="none" stroke="rgb(31, 104, 144)" stroke-linecap="round" stroke-linejoin="round" stroke-width="2.3"/></g><g transform="translate(50 51) rotate(27) scale(0.9)" fill="none" stroke="#1f6890" stroke-width="2.3" stroke-linecap="round" stroke-linejoin="round" opacity="0.6"><ellipse cx="0" cy="-15" rx="8.4" ry="11" fill="none" stroke="rgb(31, 104, 144)" stroke-linecap="round" stroke-linejoin="round" stroke-width="2.3"/><ellipse cx="0" cy="-15" rx="5.3" ry="7.4" stroke-width="1.1" opacity="0.85" fill="none" stroke="rgb(31, 104, 144)" stroke-linecap="round" stroke-linejoin="round"/><path d="M -3.6 -4.2 L 0 1.5 L 3.6 -4.2" fill="none" stroke="rgb(31, 104, 144)" stroke-linecap="round" stroke-linejoin="round" stroke-width="2.3"/><path d="M 0 1.5 L 0 20" fill="none" stroke="rgb(31, 104, 144)" stroke-linecap="round" stroke-linejoin="round" stroke-width="2.3"/></g><circle cx="50" cy="49" r="12.4" fill="url(#tb30ball)" stroke="#1f6890" stroke-width="1.2" stroke-opacity="0.5"/><path d="M41.5 43 C45.6 46, 45.6 52, 41.5 55" fill="none" stroke="#1f6890" stroke-width="1.5" stroke-opacity="0.55" stroke-linecap="round"/><path d="M58.5 43 C54.4 46, 54.4 52, 58.5 55" fill="none" stroke="#1f6890" stroke-width="1.5" stroke-opacity="0.55" stroke-linecap="round"/><ellipse cx="46" cy="44.5" rx="3.4" ry="2.1" fill="#fff" opacity="0.5"/></g><g><path d="M16 80 L84 80 L80 93 L20 93 Z" fill="#56abd2" stroke="#1f6890" stroke-width="0.8"/><line x1="20" y1="81.4" x2="80" y2="81.4" stroke="#fff" stroke-opacity="0.22" stroke-width="0.8"/><text x="50" y="89.6" text-anchor="middle" fill="#04222f" font-family="var(--font-mono)" font-size="9.4" font-weight="700" letter-spacing="0.12em" lengthAdjust="spacingAndGlyphs">DIAMOND</text></g><g><g><circle cx="15" cy="28" r="2.3" fill="#2f88b6" stroke="#1f6890" stroke-width="0.5"/><circle cx="14.4" cy="27.4" r="0.8" fill="#fff" opacity="0.6"/></g><g><circle cx="85" cy="28" r="2.3" fill="#2f88b6" stroke="#1f6890" stroke-width="0.5"/><circle cx="84.4" cy="27.4" r="0.8" fill="#fff" opacity="0.6"/></g></g><g><g><circle cx="11" cy="52" r="2.3" fill="#2f88b6" stroke="#1f6890" stroke-width="0.5"/><circle cx="10.4" cy="51.4" r="0.8" fill="#fff" opacity="0.6"/></g><g><circle cx="89" cy="52" r="2.3" fill="#2f88b6" stroke="#1f6890" stroke-width="0.5"/><circle cx="88.4" cy="51.4" r="0.8" fill="#fff" opacity="0.6"/></g></g><path d="M50 11 L87 23 V54 C87 79 71 96 50 104 C29 96 13 79 13 54 V23 Z" fill="none" stroke="#fff" stroke-opacity="0.28" stroke-width="0.9"/><path d="M50 3 L94 17 V55 C94 84 76 104 50 113 C24 104 6 84 6 55 V17 Z" fill="none" stroke="#1f6890" stroke-opacity="0.6" stroke-width="0.8"/></g><g><g stroke="#1f6890" stroke-opacity="0.85" fill="#67c0e0" fill-opacity="0.9" stroke-width="0.5"><path d="M9 92 C 3 80, 4 62, 12 50" fill="none" stroke-width="1.3" fill-opacity="0.9" stroke="rgb(31, 104, 144)" stroke-opacity="0.85"/><ellipse cx="14" cy="88" rx="4.6" ry="2.1" transform="rotate(60 14 88)" fill="rgb(103, 192, 224)" fill-opacity="0.9" stroke="rgb(31, 104, 144)" stroke-opacity="0.85" stroke-width="0.5"/><ellipse cx="13.56" cy="80.8" rx="4.6" ry="2.1" transform="rotate(54.8 13.56 80.8)" fill="rgb(103, 192, 224)" fill-opacity="0.9" stroke="rgb(31, 104, 144)" stroke-opacity="0.85" stroke-width="0.5"/><ellipse cx="13.120000000000001" cy="73.6" rx="4.6" ry="2.1" transform="rotate(49.6 13.120000000000001 73.6)" fill="rgb(103, 192, 224)" fill-opacity="0.9" stroke="rgb(31, 104, 144)" stroke-opacity="0.85" stroke-width="0.5"/><ellipse cx="12.68" cy="66.4" rx="4.6" ry="2.1" transform="rotate(44.4 12.68 66.4)" fill="rgb(103, 192, 224)" fill-opacity="0.9" stroke="rgb(31, 104, 144)" stroke-opacity="0.85" stroke-width="0.5"/><ellipse cx="12.24" cy="59.2" rx="4.6" ry="2.1" transform="rotate(39.2 12.24 59.2)" fill="rgb(103, 192, 224)" fill-opacity="0.9" stroke="rgb(31, 104, 144)" stroke-opacity="0.85" stroke-width="0.5"/><ellipse cx="11.8" cy="52" rx="4.6" ry="2.1" transform="rotate(34 11.8 52)" fill="rgb(103, 192, 224)" fill-opacity="0.9" stroke="rgb(31, 104, 144)" stroke-opacity="0.85" stroke-width="0.5"/></g><g stroke="#1f6890" stroke-opacity="0.85" fill="#67c0e0" fill-opacity="0.9" stroke-width="0.5"><path d="M91 92 C 97 80, 96 62, 88 50" fill="none" stroke-width="1.3" fill-opacity="0.9" stroke="rgb(31, 104, 144)" stroke-opacity="0.85"/><ellipse cx="86" cy="88" rx="4.6" ry="2.1" transform="rotate(-60 86 88)" fill="rgb(103, 192, 224)" fill-opacity="0.9" stroke="rgb(31, 104, 144)" stroke-opacity="0.85" stroke-width="0.5"/><ellipse cx="86.44" cy="80.8" rx="4.6" ry="2.1" transform="rotate(-54.8 86.44 80.8)" fill="rgb(103, 192, 224)" fill-opacity="0.9" stroke="rgb(31, 104, 144)" stroke-opacity="0.85" stroke-width="0.5"/><ellipse cx="86.88" cy="73.6" rx="4.6" ry="2.1" transform="rotate(-49.6 86.88 73.6)" fill="rgb(103, 192, 224)" fill-opacity="0.9" stroke="rgb(31, 104, 144)" stroke-opacity="0.85" stroke-width="0.5"/><ellipse cx="87.32" cy="66.4" rx="4.6" ry="2.1" transform="rotate(-44.4 87.32 66.4)" fill="rgb(103, 192, 224)" fill-opacity="0.9" stroke="rgb(31, 104, 144)" stroke-opacity="0.85" stroke-width="0.5"/><ellipse cx="87.76" cy="59.2" rx="4.6" ry="2.1" transform="rotate(-39.2 87.76 59.2)" fill="rgb(103, 192, 224)" fill-opacity="0.9" stroke="rgb(31, 104, 144)" stroke-opacity="0.85" stroke-width="0.5"/><ellipse cx="88.2" cy="52" rx="4.6" ry="2.1" transform="rotate(-34 88.2 52)" fill="rgb(103, 192, 224)" fill-opacity="0.9" stroke="rgb(31, 104, 144)" stroke-opacity="0.85" stroke-width="0.5"/></g></g><g filter="url(#tb30ods)"><path d="M35 6 L35 -3 L41 2 L46 -8 L50 -1 L54 -8 L59 2 L65 -3 L65 6 Z" fill="url(#tb30field)" stroke="#1f6890" stroke-width="0.8" stroke-linejoin="round"/><rect x="35" y="4.5" width="30" height="3.4" rx="1" fill="url(#tb30field)" stroke="#1f6890" stroke-width="0.6"/><path d="M36 5 H64" stroke="#fff" stroke-opacity="0.3" stroke-width="0.7"/><g><path d="M47.7 -4 L50 -6.645 L52.3 -4 L50 -0.895 Z" fill="#e4f8ff" stroke="#1f6890" stroke-width="0.5"/><path d="M47.7 -4 L50 -0.895 L52.3 -4 Z" fill="#000" opacity="0.12"/><path d="M48.85 -4.23 L50 -6.645 L51.15 -4.23 Z" fill="#fff" opacity="0.55"/></g><circle cx="46" cy="-6.6" r="1.3" fill="#e4f8ff"/><circle cx="54" cy="-6.6" r="1.3" fill="#e4f8ff"/><circle cx="41" cy="0.5" r="1.2" fill="#e4f8ff"/><circle cx="59" cy="0.5" r="1.2" fill="#e4f8ff"/></g></svg>