<svg xmlns="http://www.w3.org/2000/svg" viewBox="-15 -24 130 155" role="img"><defs><linearGradient id="tb29rim" x1="0" y1="0" x2="0.25" y2="1"><stop offset="0" stop-color="#d6efe9"/><stop offset="0.5" stop-color="#3c706a"/><stop offset="1" stop-color="#3c706a"/></linearGradient><linearGradient id="tb29field" x1="0.15" y1="0" x2="0.7" y2="1"><stop offset="0" stop-color="#d6efe9"/><stop offset="0.42" stop-color="#93c6c0"/><stop offset="1" stop-color="#549a93"/></linearGradient><linearGradient id="tb29wing" x1="0" y1="0" x2="0" y2="1"><stop offset="0" stop-color="#d6efe9"/><stop offset="1" stop-color="#549a93"/></linearGradient><radialGradient id="tb29ball" cx="0.36" cy="0.3" r="0.8"><stop offset="0" stop-color="#d6efe9"/><stop offset="0.6" stop-color="#93c6c0"/><stop offset="1" stop-color="#549a93"/></radialGradient><radialGradient id="tb29sheen" cx="0.4" cy="0.16" r="0.62"><stop offset="0" stop-color="#fff" stop-opacity="0.55"/><stop offset="0.55" stop-color="#fff" stop-opacity="0.08"/><stop offset="1" stop-color="#fff" stop-opacity="0"/></radialGradient><radialGradient id="tb29glow" cx="0.5" cy="0.5" r="0.5"><stop offset="0" stop-color="#93c6c0" stop-opacity="0.55"/><stop offset="0.55" stop-color="#93c6c0" stop-opacity="0.16"/><stop offset="1" stop-color="#93c6c0" stop-opacity="0"/></radialGradient><clipPath id="tb29clip"><path d="M50 11 L87 23 V54 C87 79 71 96 50 104 C29 96 13 79 13 54 V23 Z"/></clipPath><filter id="tb29ds" x="-60%" y="-60%" width="220%" height="220%"><feDropShadow dx="0" dy="2.2" stdDeviation="2.4" flood-color="#1a1a16" flood-opacity="0.32"/></filter><filter id="tb29ods" x="-80%" y="-120%" width="260%" height="320%"><feDropShadow dx="0" dy="1.4" stdDeviation="1.2" flood-color="#1a1a16" flood-opacity="0.3"/></filter></defs><g filter="url(#tb29ds)"><path d="M50 3 L94 17 V55 C94 84 76 104 50 113 C24 104 6 84 6 55 V17 Z" fill="url(#tb29rim)" stroke="#3c706a" stroke-width="1.4"/><path d="M50 11 L87 23 V54 C87 79 71 96 50 104 C29 96 13 79 13 54 V23 Z" fill="url(#tb29field)"/><g clip-path="url(#tb29clip)"><ellipse cx="46" cy="26" rx="42" ry="26" fill="url(#tb29sheen)"/></g><g><g transform="translate(50 51) rotate(-27) scale(0.9)" fill="none" stroke="#3c706a" stroke-width="2.3" stroke-linecap="round" stroke-linejoin="round" opacity="0.6"><ellipse cx="0" cy="-15" rx="8.4" ry="11" fill="none" stroke="rgb(60, 112, 106)" stroke-linecap="round" stroke-linejoin="round" stroke-width="2.3"/><ellipse cx="0" cy="-15" rx="5.3" ry="7.4" stroke-width="1.1" opacity="0.85" fill="none" stroke="rgb(60, 112, 106)" stroke-linecap="round" stroke-linejoin="round"/><path d="M -3.6 -4.2 L 0 1.5 L 3.6 -4.2" fill="none" stroke="rgb(60, 112, 106)" stroke-linecap="round" stroke-linejoin="round" stroke-width="2.3"/><path d="M 0 1.5 L 0 20" fill="none" stroke="rgb(60, 112, 106)" stroke-linecap="round" stroke-linejoin="round" stroke-width="2.3"/></g><g transform="translate(50 51) rotate(27) scale(0.9)" fill="none" stroke="#3c706a" stroke-width="2.3" stroke-linecap="round" stroke-linejoin="round" opacity="0.6"><ellipse cx="0" cy="-15" rx="8.4" ry="11" fill="none" stroke="rgb(60, 112, 106)" stroke-linecap="round" stroke-linejoin="round" stroke-width="2.3"/><ellipse cx="0" cy="-15" rx="5.3" ry="7.4" stroke-width="1.1" opacity="0.85" fill="none" stroke="rgb(60, 112, 106)" stroke-linecap="round" stroke-linejoin="round"/><path d="M -3.6 -4.2 L 0 1.5 L 3.6 -4.2" fill="none" stroke="rgb(60, 112, 106)" stroke-linecap="round" stroke-linejoin="round" stroke-width="2.3"/><path d="M 0 1.5 L 0 20" fill="none" stroke="rgb(60, 112, 106)" stroke-linecap="round" stroke-linejoin="round" stroke-width="2.3"/></g><circle cx="50" cy="49" r="12.4" fill="url(#tb29ball)" stroke="#3c706a" stroke-width="1.2" stroke-opacity="0.5"/><path d="M41.5 43 C45.6 46, 45.6 52, 41.5 55" fill="none" stroke="#3c706a" stroke-width="1.5" stroke-opacity="0.55" stroke-linecap="round"/><path d="M58.5 43 C54.4 46, 54.4 52, 58.5 55" fill="none" stroke="#3c706a" stroke-width="1.5" stroke-opacity="0.55" stroke-linecap="round"/><ellipse cx="46" cy="44.5" rx="3.4" ry="2.1" fill="#fff" opacity="0.5"/></g><g><path d="M16 80 L84 80 L80 93 L20 93 Z" fill="#7bb4ad" stroke="#3c706a" stroke-width="0.8"/><line x1="20" y1="81.4" x2="80" y2="81.4" stroke="#fff" stroke-opacity="0.22" stroke-width="0.8"/><text x="50" y="89.6" text-anchor="middle" fill="#082a27" font-family="var(--font-mono)" font-size="9.4" font-weight="700" letter-spacing="0.02em" textLength="56" lengthAdjust="spacingAndGlyphs">PLATINUM</text></g><g><g><circle cx="15" cy="28" r="2.3" fill="#549a93" stroke="#3c706a" stroke-width="0.5"/><circle cx="14.4" cy="27.4" r="0.8" fill="#fff" opacity="0.6"/></g><g><circle cx="85" cy="28" r="2.3" fill="#549a93" stroke="#3c706a" stroke-width="0.5"/><circle cx="84.4" cy="27.4" r="0.8" fill="#fff" opacity="0.6"/></g></g><g><g><circle cx="11" cy="52" r="2.3" fill="#549a93" stroke="#3c706a" stroke-width="0.5"/><circle cx="10.4" cy="51.4" r="0.8" fill="#fff" opacity="0.6"/></g><g><circle cx="89" cy="52" r="2.3" fill="#549a93" stroke="#3c706a" stroke-width="0.5"/><circle cx="88.4" cy="51.4" r="0.8" fill="#fff" opacity="0.6"/></g></g><path d="M50 11 L87 23 V54 C87 79 71 96 50 104 C29 96 13 79 13 54 V23 Z" fill="none" stroke="#fff" stroke-opacity="0.28" stroke-width="0.9"/><path d="M50 3 L94 17 V55 C94 84 76 104 50 113 C24 104 6 84 6 55 V17 Z" fill="none" stroke="#3c706a" stroke-opacity="0.6" stroke-width="0.8"/></g><g><g stroke="#3c706a" stroke-opacity="0.85" fill="#93c6c0" fill-opacity="0.9" stroke-width="0.5"><path d="M9 92 C 3 80, 4 62, 12 50" fill="none" stroke-width="1.3" fill-opacity="0.9" stroke="rgb(60, 112, 106)" stroke-opacity="0.85"/><ellipse cx="14" cy="88" rx="4.6" ry="2.1" transform="rotate(60 14 88)" fill="rgb(147, 198, 192)" fill-opacity="0.9" stroke="rgb(60, 112, 106)" stroke-opacity="0.85" stroke-width="0.5"/><ellipse cx="13.266666666666666" cy="76" rx="4.6" ry="2.1" transform="rotate(51.333333333333336 13.266666666666666 76)" fill="rgb(147, 198, 192)" fill-opacity="0.9" stroke="rgb(60, 112, 106)" stroke-opacity="0.85" stroke-width="0.5"/><ellipse cx="12.533333333333333" cy="64" rx="4.6" ry="2.1" transform="rotate(42.66666666666667 12.533333333333333 64)" fill="rgb(147, 198, 192)" fill-opacity="0.9" stroke="rgb(60, 112, 106)" stroke-opacity="0.85" stroke-width="0.5"/><ellipse cx="11.8" cy="52" rx="4.6" ry="2.1" transform="rotate(34 11.8 52)" fill="rgb(147, 198, 192)" fill-opacity="0.9" stroke="rgb(60, 112, 106)" stroke-opacity="0.85" stroke-width="0.5"/></g><g stroke="#3c706a" stroke-opacity="0.85" fill="#93c6c0" fill-opacity="0.9" stroke-width="0.5"><path d="M91 92 C 97 80, 96 62, 88 50" fill="none" stroke-width="1.3" fill-opacity="0.9" stroke="rgb(60, 112, 106)" stroke-opacity="0.85"/><ellipse cx="86" cy="88" rx="4.6" ry="2.1" transform="rotate(-60 86 88)" fill="rgb(147, 198, 192)" fill-opacity="0.9" stroke="rgb(60, 112, 106)" stroke-opacity="0.85" stroke-width="0.5"/><ellipse cx="86.73333333333333" cy="76" rx="4.6" ry="2.1" transform="rotate(-51.333333333333336 86.73333333333333 76)" fill="rgb(147, 198, 192)" fill-opacity="0.9" stroke="rgb(60, 112, 106)" stroke-opacity="0.85" stroke-width="0.5"/><ellipse cx="87.46666666666667" cy="64" rx="4.6" ry="2.1" transform="rotate(-42.66666666666667 87.46666666666667 64)" fill="rgb(147, 198, 192)" fill-opacity="0.9" stroke="rgb(60, 112, 106)" stroke-opacity="0.85" stroke-width="0.5"/><ellipse cx="88.2" cy="52" rx="4.6" ry="2.1" transform="rotate(-34 88.2 52)" fill="rgb(147, 198, 192)" fill-opacity="0.9" stroke="rgb(60, 112, 106)" stroke-opacity="0.85" stroke-width="0.5"/></g></g><g filter="url(#tb29ods)"><path d="M39 5 L39.5 -3 L44.5 1 L50 -7 L55.5 1 L60.5 -3 L61 5 Z" fill="url(#tb29field)" stroke="#3c706a" stroke-width="0.8" stroke-linejoin="round"/><path d="M40 4.2 H60" stroke="#fff" stroke-opacity="0.3" stroke-width="0.7"/><g><path d="M48 -3.5 L50 -5.8 L52 -3.5 L50 -0.7999999999999998 Z" fill="#e8fbf6" stroke="#3c706a" stroke-width="0.5"/><path d="M48 -3.5 L50 -0.7999999999999998 L52 -3.5 Z" fill="#000" opacity="0.12"/><path d="M49 -3.7 L50 -5.8 L51 -3.7 Z" fill="#fff" opacity="0.55"/></g><circle cx="40" cy="-2.4" r="1.2" fill="#e8fbf6"/><circle cx="60" cy="-2.4" r="1.2" fill="#e8fbf6"/></g></svg>